<svg width="200" height="200" viewBox="0 0 200 200" fill="none" xmlns="http://www.w3.org/2000/svg">
<mask id="path-1-inside-1_203_2" fill="white">
<path d="M31 32.7119H170V178.423C170 185.051 164.627 190.423 158 190.423H43C36.3726 190.423 31 185.051 31 178.423V32.7119Z"/>
</mask>
<path d="M31 32.7119H170H31ZM174 178.423C174 187.26 166.837 194.423 158 194.423H43C34.1634 194.423 27 187.26 27 178.423H35C35 182.842 38.5817 186.423 43 186.423H158C162.418 186.423 166 182.842 166 178.423H174ZM43 194.423C34.1634 194.423 27 187.26 27 178.423V32.7119H35V178.423C35 182.842 38.5817 186.423 43 186.423V194.423ZM174 32.7119V178.423C174 187.26 166.837 194.423 158 194.423V186.423C162.418 186.423 166 182.842 166 178.423V32.7119H174Z" fill="black" mask="url(#path-1-inside-1_203_2)"/>
<mask id="path-3-inside-2_203_2" fill="white">
<path d="M31 32.7109H170V178.422C170 185.05 164.627 190.422 158 190.422H43C36.3726 190.422 31 185.05 31 178.422V32.7109Z"/>
</mask>
<path d="M31 32.7109H170H31ZM178 178.422C178 189.468 169.046 198.422 158 198.422H43C31.9543 198.422 23 189.468 23 178.422H39C39 180.632 40.7909 182.422 43 182.422H158C160.209 182.422 162 180.632 162 178.422H178ZM43 198.422C31.9543 198.422 23 189.468 23 178.422V32.7109H39V178.422C39 180.632 40.7909 182.422 43 182.422V198.422ZM178 32.7109V178.422C178 189.468 169.046 198.422 158 198.422V182.422C160.209 182.422 162 180.632 162 178.422V32.7109H178Z" fill="black" mask="url(#path-3-inside-2_203_2)"/>
<path d="M166 32.5C166 34.6306 164.883 37.1192 161.86 39.844C158.838 42.5681 154.241 45.2047 148.219 47.5008C136.203 52.0825 119.333 55 100.5 55C81.6673 55 64.7972 52.0825 52.7812 47.5008C46.7593 45.2047 42.1618 42.5681 39.1399 39.844C36.1174 37.1192 35 34.6306 35 32.5C35 30.3694 36.1174 27.8808 39.1399 25.156C42.1618 22.4319 46.7593 19.7953 52.7812 17.4992C64.7972 12.9175 81.6673 10 100.5 10C119.333 10 136.203 12.9175 148.219 17.4992C154.241 19.7953 158.838 22.4319 161.86 25.156C164.883 27.8808 166 30.3694 166 32.5Z" stroke="black" stroke-width="8"/>
<path d="M166 121C166 140.882 136.675 157 100.5 157C64.3254 157 35 140.882 35 121" stroke="black" stroke-width="8"/>
</svg>
